<svg width="42" height="42" viewBox="0 0 42 42" fill="none" xmlns="http://www.w3.org/2000/svg">
<rect x="2" y="2" width="2" height="2" fill="white"/>
<rect x="8" y="2" width="2" height="2" fill="white"/>
<rect x="14" y="2" width="2" height="2" fill="white"/>
<rect x="20" y="2" width="2" height="2" fill="white"/>
<rect x="26" y="2" width="2" height="2" fill="white"/>
<rect x="32" y="2" width="2" height="2" fill="white"/>
<rect x="38" y="2" width="2" height="2" fill="white"/>
<rect x="2" y="8" width="2" height="2" fill="white"/>
<rect x="8" y="8" width="2" height="2" fill="white" fill-opacity="0.25"/>
<rect x="14" y="8" width="2" height="2" fill="white" fill-opacity="0.25"/>
<rect x="20" y="8" width="2" height="2" fill="white" fill-opacity="0.25"/>
<rect x="26" y="8" width="2" height="2" fill="white" fill-opacity="0.25"/>
<rect x="32" y="8" width="2" height="2" fill="white" fill-opacity="0.25"/>
<rect x="38" y="8" width="2" height="2" fill="white" fill-opacity="0.25"/>
<rect x="2" y="14" width="2" height="2" fill="white"/>
<rect x="8" y="14" width="2" height="2" fill="white" fill-opacity="0.25"/>
<rect x="14" y="14" width="2" height="2" fill="white" fill-opacity="0.25"/>
<rect x="20" y="14" width="2" height="2" fill="white" fill-opacity="0.25"/>
<rect x="26" y="14" width="2" height="2" fill="white" fill-opacity="0.25"/>
<rect x="32" y="14" width="2" height="2" fill="white" fill-opacity="0.25"/>
<rect x="38" y="14" width="2" height="2" fill="white" fill-opacity="0.25"/>
<rect x="2" y="20" width="2" height="2" fill="white"/>
<rect x="8" y="20" width="2" height="2" fill="white" fill-opacity="0.25"/>
<rect x="14" y="20" width="2" height="2" fill="white" fill-opacity="0.25"/>
<rect x="20" y="20" width="2" height="2" fill="white" fill-opacity="0.25"/>
<rect x="26" y="20" width="2" height="2" fill="white" fill-opacity="0.25"/>
<rect x="32" y="20" width="2" height="2" fill="white" fill-opacity="0.25"/>
<rect x="38" y="20" width="2" height="2" fill="white" fill-opacity="0.25"/>
<rect x="2" y="26" width="2" height="2" fill="white"/>
<rect x="8" y="26" width="2" height="2" fill="white" fill-opacity="0.25"/>
<rect x="14" y="26" width="2" height="2" fill="white" fill-opacity="0.25"/>
<rect x="20" y="26" width="2" height="2" fill="white" fill-opacity="0.25"/>
<rect x="26" y="26" width="2" height="2" fill="white" fill-opacity="0.25"/>
<rect x="32" y="26" width="2" height="2" fill="white" fill-opacity="0.25"/>
<rect x="38" y="26" width="2" height="2" fill="white" fill-opacity="0.25"/>
<rect x="2" y="32" width="2" height="2" fill="white"/>
<rect x="8" y="32" width="2" height="2" fill="white" fill-opacity="0.25"/>
<rect x="14" y="32" width="2" height="2" fill="white" fill-opacity="0.25"/>
<rect x="20" y="32" width="2" height="2" fill="white" fill-opacity="0.25"/>
<rect x="26" y="32" width="2" height="2" fill="white" fill-opacity="0.25"/>
<rect x="32" y="32" width="2" height="2" fill="white" fill-opacity="0.25"/>
<rect x="38" y="32" width="2" height="2" fill="white" fill-opacity="0.25"/>
<rect x="2" y="38" width="2" height="2" fill="white"/>
<rect x="8" y="38" width="2" height="2" fill="white" fill-opacity="0.25"/>
<rect x="14" y="38" width="2" height="2" fill="white" fill-opacity="0.25"/>
<rect x="20" y="38" width="2" height="2" fill="white" fill-opacity="0.25"/>
<rect x="26" y="38" width="2" height="2" fill="white" fill-opacity="0.25"/>
<rect x="32" y="38" width="2" height="2" fill="white" fill-opacity="0.25"/>
<rect x="38" y="38" width="2" height="2" fill="white" fill-opacity="0.25"/>
</svg>
