<svg width="626" height="455" viewBox="0 0 626 455" fill="none" xmlns="http://www.w3.org/2000/svg">
<path d="M0 153.782L169.731 0.00952148L170.615 453.943H0V153.782Z" fill="url(#paint0_linear_1853_8641)"/>
<path d="M426.268 147.275L271.388 16.991V452.329H426.268V147.275Z" fill="url(#paint1_linear_1853_8641)"/>
<path d="M625.385 209.41L512.231 76V451.707H625.385V209.41Z" fill="url(#paint2_linear_1853_8641)"/>
<path d="M225.424 71.1333L169.731 0L170.615 453.943L225.424 454.385V71.1333Z" fill="url(#paint3_linear_1853_8641)" fill-opacity="0.25"/>
<path d="M472 135.724L512.229 76V451.707H472V135.724Z" fill="url(#paint4_linear_1853_8641)" fill-opacity="0.25"/>
<defs>
<linearGradient id="paint0_linear_1853_8641" x1="85.3076" y1="-0.244725" x2="85.3076" y2="454.404" gradientUnits="userSpaceOnUse">
<stop stop-opacity="0.15"/>
<stop offset="0.0001" stop-color="white" stop-opacity="0.15"/>
<stop offset="1" stop-color="white" stop-opacity="0"/>
</linearGradient>
<linearGradient id="paint1_linear_1853_8641" x1="348.828" y1="16.991" x2="349.185" y2="452.503" gradientUnits="userSpaceOnUse">
<stop stop-color="white" stop-opacity="0.15"/>
<stop offset="1" stop-color="white" stop-opacity="0"/>
</linearGradient>
<linearGradient id="paint2_linear_1853_8641" x1="568.808" y1="76.3284" x2="568.808" y2="451.707" gradientUnits="userSpaceOnUse">
<stop stop-color="white" stop-opacity="0.15"/>
<stop offset="1" stop-color="white" stop-opacity="0"/>
</linearGradient>
<linearGradient id="paint3_linear_1853_8641" x1="197.605" y1="-0.225923" x2="197.605" y2="454.385" gradientUnits="userSpaceOnUse">
<stop stop-color="white"/>
<stop offset="1" stop-color="white" stop-opacity="0"/>
</linearGradient>
<linearGradient id="paint4_linear_1853_8641" x1="492.232" y1="76.197" x2="492.232" y2="452.235" gradientUnits="userSpaceOnUse">
<stop stop-color="white"/>
<stop offset="1" stop-color="white" stop-opacity="0"/>
</linearGradient>
</defs>
</svg>
