<svg width="512" height="512" viewBox="0 0 512 512" fill="none" xmlns="http://www.w3.org/2000/svg">
<rect width="512" height="512" fill="#15181C"/>
<path d="M147.037 263.095C125.088 291.581 127.168 332.617 153.275 358.725C181.642 387.092 227.633 387.092 256 358.725L326.528 288.197L300.847 262.516L230.319 333.044C216.135 347.227 193.14 347.227 178.956 333.044C167.079 321.166 165.148 303.108 173.164 289.221L147.037 263.095Z" fill="#7446F6"/>
<path d="M210.812 249.826L281.681 178.956C295.865 164.773 318.86 164.773 333.044 178.956C345.045 190.957 346.891 209.267 338.584 223.209L364.664 249.29C386.93 220.79 384.95 179.5 358.725 153.275C330.358 124.908 284.367 124.908 256 153.275L185.13 224.145L210.812 249.826Z" fill="#7446F6"/>
<path d="M248.905 147.037C220.419 125.088 179.383 127.168 153.275 153.275C124.908 181.642 124.908 227.633 153.275 256L223.803 326.528L249.484 300.847L178.956 230.319C164.773 216.135 164.773 193.14 178.956 178.956C190.834 167.079 208.892 165.148 222.779 173.164L248.905 147.037Z" fill="#7446F6"/>
<path d="M262.174 210.812L333.044 281.681C347.227 295.865 347.227 318.86 333.044 333.044C321.043 345.045 302.733 346.891 288.791 338.584L262.71 364.664C291.21 386.93 332.5 384.95 358.725 358.725C387.092 330.358 387.092 284.367 358.725 256L287.855 185.13L262.174 210.812Z" fill="#7446F6"/>
</svg>
